<?xml version="1.0" encoding="utf-8"?>
<!-- Generator: Adobe Illustrator 19.0.1, SVG Export Plug-In . SVG Version: 6.00 Build 0)  -->
<svg version="1.1" id="Layer_1" xmlns="http://www.w3.org/2000/svg" xmlns:xlink="http://www.w3.org/1999/xlink" x="0px" y="0px"
	 viewBox="0 0 84.6 37.7" enable-background="new 0 0 84.6 37.7" xml:space="preserve">
<g id="XMLID_1_">
	<path id="XMLID_359_" fill="#FFFFFF" d="M74.2,0.4c0.5,0.6,1.1,1,1.1,1.8c0,0.3,0,0.7,0,1c0,2,0,4,0,6c0,0.6,0,1.3,0,1.9
		c0,1.1,0.1,2.3,0.1,3.4c0,1.5,0,3.1-0.1,4.6c0,0.6-0.3,1.2-0.5,1.7c-0.1,0.3-0.4,0.5-0.6,0.7c0.4,0.3,3.5,0.2,4-0.2
		c-0.8-0.8-1.3-1.5-1.2-2.8c0.2-1.7,0-3.4,0-5.2c0-1.9,0-3.8,0-5.8c0-0.5,0.1-1,0.1-1.5c0.1,0.2,0.1,0.3,0.2,0.5
		C78,8.4,78,10.3,78,12.3c0,0.9-0.1,1.8-0.1,2.7c0,1.1,0,2.2,0,3.4c0,0.6,0,1.3,0,1.9c0.1,0,0.1,0,0.2,0c0.4-2.9-0.1-5.9,0.2-8.8
		c0.4,1.2,0.7,2.4,0.9,3.6c0.4,1.9,0.8,3.9,1.2,5.8c0.1,0.5,0.8,0.8,1.5,0.7c0.4-0.1,0.7-0.5,0.6-1.1c0-0.5-0.1-0.9-0.1-1.4
		c0-0.9,0-1.7,0-2.6c0-0.9-0.1-1.8-0.1-2.8s0.1-2,0.1-3c0-1.3-0.1-2.5-0.1-3.8c0-1.2,0.1-2.5,0-3.7c0-1.2-0.1-2.3,1-3.2
		c-1.3,0-2.6,0-3.8,0c0,0.1-0.1,0.1-0.1,0.2c0.1,0.1,0.3,0.3,0.4,0.4c0.3,0.3,0.7,0.6,0.7,0.9c0.1,0.6,0.1,1.3,0.1,1.9
		c0,1.9,0,3.9,0,5.8c0,0.9,0,1.8,0,2.7c0,0.1-0.1,0.1-0.1,0.2c-0.2-0.8-0.4-1.6-0.7-2.4c-0.1-0.3-0.3-0.5-0.5-0.8
		c-0.1,0-0.1,0-0.2,0.1c0.1-0.3,0.3-0.7,0.4-1c-0.6-2.6-1.2-5.3-1.8-7.9C76.7,0.2,75.6,0.3,74.2,0.4z"/>
	<path id="XMLID_358_" fill="#FFFFFF" d="M9.1,12.1c-0.1,0.7-0.4,1.4-0.4,2.1c-0.1,1.1-0.6,1.9-1.3,2.7c-0.3,0.3-0.8,0.2-1.1-0.2
		c-0.3-0.4-0.2-0.6,0.1-0.9c0.4-0.3,0.5-0.9,1-1.1c0.1,0,0-0.2,0-0.3c0.1-0.5,0.2-1,0.3-1.5S8,12,8,11.5c0-0.7-0.1-1.4-0.2-2.1
		c0-1.7-1.4-3-2.8-3.3S2.1,6.1,0.7,6C0.5,6,0.3,6.1,0,6.2c0.3,0.3,0.6,0.5,0.8,0.7s0.4,0.5,0.4,0.7c0,1.7,0,3.5,0,5.2
		c0,1.4,0,2.7,0,4.1c0,0.3,0.1,0.7,0.1,1c0,1.3-0.1,2.6-0.1,4c0,0.4,0.1,0.7,0,1.1c0,0.7-0.1,1.3-0.1,2c0,0.1,0.2,0.3,0.3,0.4
		c0.2,0.3,0.5,0.6,0.5,0.9c0,0.4-0.5,0.5-0.9,0.4c-0.6-0.2-0.8-0.1-1,0.7c0.5,0,1,0,1.5,0c0.9,0,1.8,0.2,2.7,0.1
		C5.4,27.5,6.4,27,7,26c0.3-0.5,0.7-1.1,0.8-1.7C8,23.2,8,22.1,8,21c0.1-0.9-0.1-1.8-0.5-2.6c-0.4-0.8-0.3-1.2,0.4-1.8
		c0.1-0.1,0.2-0.2,0.3-0.3C9.2,15,9.3,13.5,9.1,12.1z"/>
	<path id="XMLID_357_" fill="#FFFFFF" d="M11.1,5.7c0,0.1,0,0.2-0.1,0.2c0.3,0.3,0.7,0.6,0.8,0.9c0.2,0.9,0.3,1.8,0.3,2.7
		c0,1-0.1,2-0.1,3s0,2,0,2.9c0,0.2-0.1,0.5-0.1,0.7c0.1,1.6,0.1,3.2,0.2,4.7c0,1.1-0.1,2.2-0.1,3.2c0,0.9,0.1,1.7-0.8,2.2
		c-0.2,0.1-0.2,0.4-0.3,0.7c0.2,0,0.4,0,0.6,0c0.1,0,0.2,0,0.3,0c1.1-0.1,2.2-0.1,3.3-0.2c0.1,0,0.3-0.2,0.5-0.3
		c-0.2-0.2-0.4-0.3-0.5-0.4c-0.5-0.5-1-1-1-1.8s0-1.6,0.1-2.4c0-1.5,0-3,0-4.5c0-0.3,0-0.7,0.2-0.9c0.2-0.2,0.7-0.1,1-0.1
		c0.4,0.1,0.4,0.4,0.1,0.8c-0.1,0.1-0.2,0.2-0.3,0.4c0.3,0,0.4,0.1,0.5,0c0.6-0.1,0.8,0.3,0.7,0.8c-0.1,0.4-0.1,0.9-0.1,1.3
		c0,1.1,0,2.2,0.1,3.3c0.1,0.9-0.2,1.9,0.3,2.8c0.2,0.4,0.6,0.6,1,0.6c0.5,0,1-0.1,1.5-0.1c0.2,0,0.4-0.2,0.6-0.2
		c-0.1-0.2-0.3-0.4-0.4-0.6c-0.3-0.4-0.8-0.8-0.8-1.2c-0.1-1.4,0.1-2.7,0-4.1c0-1.1-0.1-2.1-0.4-3.2c-0.1-0.5-0.1-0.7,0.3-0.9
		c0.8-0.6,1-1.5,1.2-2.3c0-0.1-0.1-0.2-0.2-0.5c-0.1,0.3-0.1,0.5-0.2,0.6c-0.3,0.8-0.7,1.5-1.3,2c-0.4,0.4-0.7-0.1-1.1-0.2
		c0,0-0.1-0.4,0-0.5c0.1-0.3,0.3-0.5,0.6-0.7c0.9-0.7,1.1-1.8,1.2-2.8c0.1-0.7,0.3-1.4,0-2.2c-0.2-0.5-0.2-1.1-0.3-1.6
		c0-0.3-0.1-0.6-0.2-0.8c-0.6-0.8-1.3-1.6-2.4-1.6C14.4,5.6,12.8,5.6,11.1,5.7z"/>
	<path id="XMLID_355_" fill="#FFFFFF" d="M53,23.2c-0.3-0.3-0.6-0.5-0.9-0.7c-0.2-0.2-0.4-0.3-0.5-0.6c-0.5-1.7-1-3.4-1.4-5
		c-0.2-0.8-0.4-1.7-0.6-2.5c-0.1-0.3-0.1-0.6-0.2-0.9c-0.3-0.7-0.5-1.4-0.2-2.2c0.6-2,1.2-3.9,1.8-5.9c0.2-0.7,0.4-1.5,1.1-2
		c0.4-0.3,0.6-0.7,0.9-1.1c-0.1,0-0.2,0-0.3,0c-1.1,0.1-2.3,0.2-3.4,0.3c-0.2,0-0.4,0.2-0.7,0.3c0.1,0.2,0.2,0.4,0.4,0.5
		c0.6,0.3,0.7,0.8,0.6,1.3c-0.2,0.9-0.4,1.8-0.8,2.6c-0.4,0.8-0.5,1.6-0.9,2.4c-0.3,0.7-0.4,1.5-0.6,2.3c0,0.1-0.2,0.2-0.3,0.3
		c-0.1-0.1-0.2-0.2-0.2-0.4c-0.1-0.5,0-1.1,0-1.6c0.1-0.9,0-1.8,0-2.7s-0.1-1.9-0.1-2.8c0-0.4,0.1-0.8,0.5-1.1
		c0.2-0.3,0.4-0.6,0.7-0.9c-0.6-0.4-3.9,0-4.5,0.5c0.1,0.1,0.1,0.2,0.2,0.3c0.8,0.4,0.9,1.1,0.9,1.9c0,1.7,0,3.5,0,5.2
		c0,1.4,0.1,2.7,0.2,4.1c0,0.2,0.2,0.4,0.2,0.5c-0.1,0.5-0.2,1-0.3,1.5c-0.1,1.3-0.1,2.6-0.2,3.9c0,0.6,0.1,1.1,0.2,1.7
		c0.1,0.7-0.3,1.1-0.8,1.5c-0.1,0.1-0.3,0.2-0.4,0.3c0.5,0.4,4,0.2,4.7-0.3c-0.3-0.3-0.6-0.5-0.9-0.8c-0.2-0.2-0.4-0.5-0.4-0.8
		c-0.1-0.7,0-1.3,0-2c0-1,0-2,0.3-2.9c0.2-0.5,0.3-0.9,0.4-1.4c0-0.1,0.1-0.2,0.2-0.2c0.1,0,0.2,0.1,0.3,0.2
		c0.2,0.8,0.5,1.6,0.1,2.5c-0.2,0.3-0.2,0.7-0.3,1.1c0.1,0,0.1,0,0.2,0.1c0.2-0.3,0.4-0.7,0.5-1c0.1,0,0.1,0,0.2,0
		c0.3,1.2,0.5,2.4,0.8,3.6c0,0.2-0.1,0.5-0.2,0.7c-0.2,0.4-0.4,0.7-0.7,1.1C50.1,23.9,52.4,23.6,53,23.2z"/>
	<path id="XMLID_354_" fill="#FFFFFF" d="M36.2,25.3c0.1-0.1,0.2-0.1,0.2-0.2c0.1,0,0.2-0.1,0.3-0.1c1.2-0.2,1.9-0.9,2.5-1.9
		c0.7-1.2,0.9-2.6,1-4c0.2-1.6,0.2-3.1,0.1-4.7c-0.1-1.7,0.4-3.5-0.3-5.1c-0.1-0.3,0.1-0.7,0.1-1.1c-0.1-1.4-0.7-2.6-1.4-3.8
		c-0.4-0.6-2-1.2-2.7-0.7c-0.6,0.4-1.2,0.8-1.5,1.4c-0.4,0.7-0.7,1.5-0.9,2.3c-0.3,1-0.4,2.1-0.5,3.2c-0.1,0.8,0,1.6,0,2.4
		c0,1.2,0,2.3,0,3.5c0,0.5,0.1,1.1,0.1,1.6c0.1,1.1,0.2,2.1,0.4,3.2c0.2,0.9,0.6,1.8,1,2.6c0.4,0.7,0.9,1.3,1.5,1.9
		c0.2,0.3,0.6,0.5,0.9,0.5c1.4,0.2,2.5-0.3,3.2-1.6c0.6-1.1,0.9-2.3,1.1-3.5c0.2-0.9,0.2-1.8,0.2-2.7c0.1-1.2,0.1-2.4,0.1-3.6
		c0,0-0.1,0-0.2-0.1c0,0.2-0.1,0.4-0.1,0.6c0,1,0,2,0,3c-0.1,1-0.1,2-0.4,3c-0.2,1-0.3,2-1,2.8c-0.3,0.3-0.7,0.7-1,1
		C38.2,26.1,37.1,26.1,36.2,25.3z"/>
	<path id="XMLID_353_" fill="#FFFFFF" d="M25.7,26.4c0.9-0.4,1.9-0.6,2.5-1.6c0.7-1.1,1-2.4,1.3-3.6c0.2-1,0.2-2,0.3-3
		c0.1-1.2,0.1-2.5,0.1-3.7c0-0.9-0.3-1.9-0.2-2.8c0.1-0.9-0.2-1.8-0.2-2.7c-0.1-1.2-0.6-2.2-1.2-3.2c-0.4-0.7-1.2-1.1-2-1.1
		c-0.9,0-1.9,0.5-2.4,1.4c-0.3,0.6-0.6,1.2-0.9,1.8C23,8,23,8,23,8.1c-0.1,0.9-0.1,1.7-0.2,2.6c-0.1,0.8-0.3,1.7-0.3,2.5
		c-0.1,0.9-0.1,1.9-0.1,2.8c0,0.9,0,1.7,0,2.6c0.1,1,0.2,1.9,0.3,2.9c0.1,0.8,0.3,1.6,0.5,2.4c0.3,1.4,1.8,1.9,2.3,3.2l0.1,0.1
		c0.6,0.5,1.8,0.4,2.6,0.1c1.2-0.5,1.6-1.6,1.9-2.5c0.5-1.3,0.6-2.8,0.8-4.2c0.1-0.5-0.1-1-0.1-1.5c-0.2,0.3-0.2,0.6-0.3,0.9
		c-0.1,1.9-0.4,3.7-1.3,5.4c-0.5,0.8-1.1,1.5-2,1.5C26.7,26.9,26,27.2,25.7,26.4z"/>
	<path id="XMLID_351_" fill="#FFFFFF" d="M73.5,2.1c0-0.1-0.1-0.1-0.1-0.2C73.2,2,72.9,2,72.7,2.1c-0.2,0.2-0.5,0.4-0.6,0.7
		c-0.3,1.1-0.6,2.2-0.9,3.4s-0.5,2.5-0.7,3.7c-0.2,1.3-0.5,2.7-0.7,4c-0.1,0.5,0,0.9,0,1.4c0,1.3,0,2.6,0,3.9c0,0.6,0.2,1.3-0.2,1.9
		c-0.7-0.3-0.7-0.4-0.7-0.9c0-2,0-4-0.1-6c0-1.3-0.1-2.7,0.4-4c0.2-0.6,0.3-1.2,0.5-1.8c0.2-0.9,0.3-1.8,0.5-2.7
		c0.2-0.8,0.6-1.6,0.6-2.5s0.4-1.5,1.1-2c0.2-0.1,0.2-0.4,0.3-0.6c-0.2,0-0.4-0.1-0.7-0.1c-0.7,0-1.4,0-2.1,0.1
		c-0.4,0-0.9,0.2-1.3,0.3c0.3,0.4,0.5,0.5,0.7,0.7c0.1,0.1,0.3,0.3,0.3,0.5c-0.1,0.7-0.1,1.4-0.3,2c-0.3,0.8-0.1,1.6-0.5,2.4
		C68,7,68.1,7.8,68,8.4c-0.1,0-0.1,0-0.2,0c-0.1-0.5-0.3-1-0.4-1.5c-0.2-1-0.5-2.1-0.6-3.1c-0.1-0.8-0.5-1.7,0.4-2.4
		c0.2-0.1,0.4-0.3,0.7-0.6c-0.4,0-0.6-0.1-0.8,0c-1,0.1-2,0.2-3,0.3c-0.2,0-0.5,0-0.7,0.1c0.1,0.2,0.1,0.6,0.3,0.7
		c1,0.6,0.9,1.7,1.2,2.6c0.4,1.2,0.5,2.5,0.7,3.8c0.1,0.8,0.2,1.7,0.4,2.5c0.1,0.7,0.4,1.3,0.5,1.9s0.3,1.2,0.3,1.8
		c0,1.7,0,3.5,0,5.2c0,0.7,0.1,1.4-0.7,1.9c-0.2,0.1-0.3,0.4-0.5,0.7c0.2,0,0.3,0.1,0.4,0.1c1.2-0.1,2.5-0.1,3.7-0.2
		c0.1,0,0.3-0.2,0.3-0.3c0.1-0.5,0.1-1,0.1-1.5c0-1.8,0-3.7-0.1-5.5c0-0.5-0.1-1,0-1.5c0.2-1.2,0.5-2.3,0.8-3.5
		c0.1-0.3,0.1-0.5,0.1-0.8c0.2-0.8,0.4-1.5,0.6-2.3c0.2-0.9,0.3-1.9,0.5-2.9C72.2,3.1,72.8,2.5,73.5,2.1z"/>
	<path id="XMLID_350_" fill="#FFFFFF" d="M55.1,1.9c0.1,0.2,0.2,0.4,0.4,0.5c0.6,0.3,0.7,0.8,0.7,1.4c0,1.7,0.1,3.4,0.1,5.1
		c0,1.1-0.1,2.1-0.1,3.2c0,1.6,0.1,3.2,0.1,4.7c0,1.1,0.1,2.1,0,3.2c0,0.7,0.2,1.5-0.5,2.1c-0.3,0.2-0.5,0.5-0.7,0.7
		c0,0.1,0.1,0.2,0.1,0.2c0.8,0,1.5,0.1,2.3,0c1.5-0.1,2.9-0.3,4.4-0.5c0.6-0.1,0.8-0.3,0.7-0.9c0-0.3-0.1-0.6-0.1-0.8
		c0-1.3,0.1-2.6,0.1-3.9c0-0.6,0-1.1,0-1.7c-0.1,0-0.2,0-0.3-0.1c-0.1,0.2-0.2,0.5-0.3,0.7c-0.1,0.2,0,0.4-0.1,0.5
		c-0.4,1.2-0.7,2.5-1.1,3.7c-0.2,0.6-0.3,1.4-1.3,1.3c-0.1,0-0.1,0-0.2,0c-0.6,0.3-0.7,0-0.7-0.5c0-0.8-0.1-1.6-0.1-2.4s0-1.7,0-2.5
		c0-1.1,0.1-2.2,0.1-3.3c0-1.7-0.1-3.3-0.1-5c0-1.4,0-2.8,0-4.2c0-0.3,0.1-0.7,0.2-1c0.3-0.4,0.6-0.7,1-1.2
		C58.1,1.5,56.6,1.4,55.1,1.9z"/>
	<path id="XMLID_348_" fill="#FFFFFF" d="M46.5,34.8c-0.4-0.7-0.8-0.4-1.2-0.4c-0.3,0-0.7,0.1-0.6-0.4c0.1-0.4-0.3-1.1,0.5-1.1
		c0.3,0,0.5-0.1,0.8,0c0.2,0,0.4,0.2,0.6,0.3c0.2,0.1,0.4,0.2,0.5,0.2c0.2,0,0.4-0.3,0.4-0.4c-0.1-0.2-0.3-0.5-0.5-0.6
		c-0.8-0.4-1.7,0.1-2.5-0.1c-0.2-0.1-0.5,0-0.7,0c-0.4,0.1-0.5,0.3-0.2,0.7c0.1,0.2,0.3,0.4,0.3,0.7c0,1,0,1.9,0,2.9
		c0,0.8,0.2,1,1,0.9c0.5-0.1,1.1-0.1,1.7-0.1c0.2,0,0.3,0.1,0.5,0.1c0.2-0.1,0.4-0.3,0.5-0.5c-0.2-0.1-0.3-0.4-0.5-0.4
		c-0.5,0-1,0-1.5,0s-0.8-0.1-0.8-0.6c0-0.6,0.2-0.9,0.7-0.9C45.7,34.9,46,34.9,46.5,34.8z"/>
	<path id="XMLID_347_" fill="#FFFFFF" d="M34.6,32.7c-0.7-0.4-1.4-0.4-1.7,0.2c-0.3,0.5-0.4,1.1-0.6,1.6c-0.2,0.8-0.4,1.7-1.2,2.3
		c-0.3,0.2-0.2,0.5,0.1,0.6c0.5,0.2,1-0.1,1.1-0.7c0.1-0.9,0.8-1.4,1.7-1.1c0.2,0.1,0.4,0.3,0.4,0.5c0,0.3-0.1,0.6-0.2,1.1
		c0.5,0,0.9,0.1,1.4,0.1c0.1,0,0.3-0.2,0.4-0.3c0-0.1-0.1-0.3-0.2-0.4c-0.2-0.3-0.4-0.5-0.6-0.8c-0.2-0.3-0.3-0.6-0.4-1
		C34.6,34.1,33.9,33.5,34.6,32.7z"/>
	<path id="XMLID_346_" fill="#FFFFFF" d="M23.1,34c0.1-0.1,0.1-0.1,0.2-0.2c-0.1-0.3-0.1-0.6-0.3-0.8c-0.6-0.6-1.7-0.7-2.3-0.2
		c-0.4,0.3-0.7,0.6-0.6,1.2c0.1,0.5,0.3,0.8,0.8,1c0.4,0.2,0.9,0.4,1.3,0.5c0.5,0.1,0.7,0.4,0.6,0.8c-0.1,0.5-0.6,0.7-1.1,0.5
		c-0.4-0.1-0.8-0.3-0.9-0.8c-0.1-0.2-0.3-0.5-0.5-0.2C20.1,36,20,36.3,20,36.5c0,0.3,0.2,0.8,0.4,0.8c0.8,0.2,1.5,0.5,2.4,0.1
		c0.6-0.3,0.8-0.8,0.8-1.3c0-0.4-0.2-1-0.5-1.1c-0.5-0.3-1.2-0.4-1.8-0.7c-0.1-0.1-0.4-0.3-0.4-0.3c0.2-0.3,0.4-0.6,0.7-0.9
		c0.1-0.1,0.4,0.1,0.6,0.2C22.5,33.5,22.8,33.8,23.1,34z"/>
	<path id="XMLID_345_" fill="#FFFFFF" d="M55.8,36.5c-0.1,0-0.3,0-0.4-0.1c-0.9-0.4-1.3-1.5-0.8-2.6c0.1-0.3,0.3-0.6,0.6-0.8
		s0.7-0.3,1-0.3c0.6,0.1,1.1,0.4,1.4,1c0.2,0.4,0.5,0.4,0.7-0.1s0-0.9-0.6-1c-0.1,0-0.3,0-0.4-0.1c-1.4-0.8-2.6-0.5-3.4,0.9
		c-0.6,1.1-0.5,2.7,0.6,3.4c0.5,0.3,1,0.9,1.7,0.7c1-0.2,1.9-1,2.1-2c0-0.1-0.3-0.3-0.3-0.3c-0.2,0.1-0.4,0.3-0.5,0.5
		C57,36.2,56.5,36.5,55.8,36.5z"/>
	<path id="XMLID_344_" fill="#FFFFFF" d="M81.5,22.3c0.4,0.6,1.8,0.6,2.1,0.3c0.1-0.1,0.1-0.2,0.1-0.3c0-0.5-0.1-1.1-0.1-1.6
		c0-1-0.1-1.9-0.1-2.9c0-0.3,0.2-0.5,0.2-0.8c0-1-0.1-2-0.1-3s0.1-2,0.1-3c0-1.3,0-2.6-0.1-3.8c-0.1-1.3,0.3-2.6,0-3.9
		c0-0.1,0.1-0.2,0.1-0.3c0.3-0.5,0.6-1.1,0.9-1.6c-0.3-0.1-0.7,0.2-1,0.6c-0.6,1.1-0.1,2.2-0.3,3.4c-0.1,0.6,0.1,1.2,0.1,1.8
		c-0.1,1.8-0.2,3.6-0.2,5.4c0,0.3,0.2,0.6,0.2,1c0,1.4-0.1,2.8-0.1,4.1c0,1.3,0,2.6,0,3.9c0,0.5-0.2,0.7-0.7,0.7
		C82.3,22.2,82,22.2,81.5,22.3z"/>
	<path id="XMLID_343_" fill="#FFFFFF" d="M38.3,36.9c0.3,0.5,0.8,0.5,1.1,0.3s0.5-0.5,0.4-1c-0.1-0.9-0.1-1.8-0.1-2.7
		c0-0.5,0.3-0.6,0.8-0.3c0.1,0.1,0.4,0.1,0.5,0.1c0.1-0.1,0.2-0.3,0.2-0.5c0-0.1-0.2-0.3-0.3-0.4c-0.3-0.1-0.6-0.1-0.9-0.1
		c-0.6,0-1.1,0-1.7-0.1c-0.9-0.1-1.3,0.3-1.1,1.2c0,0.2,0.2,0.3,0.3,0.5c0.1-0.1,0.3-0.3,0.4-0.4c0.1-0.2,0.3-0.3,0.4-0.5
		c0.1,0.2,0.4,0.4,0.4,0.6c0.1,0.6,0,1.1,0,1.7C38.9,35.9,38.8,36.5,38.3,36.9z"/>
	<path id="XMLID_342_" fill="#FFFFFF" d="M26.8,33.9L26.8,33.9c0-0.3,0.1-0.6,0-0.9c-0.1-0.2-0.3-0.4-0.5-0.5
		c-0.1-0.1-0.5,0-0.5,0.1c0,0.2,0,0.4,0.1,0.7c0,0.2,0,0.4,0.1,0.6c0,0.5,0.1,1,0.1,1.5s-0.1,1-0.3,1.4c-0.2,0.5-0.1,0.7,0.4,0.7
		c0.6,0,1.1,0,1.7,0.1c0.9,0.1,1.4-0.3,1.3-1.2c0-0.3-0.2-0.5-0.3-0.8c-0.2,0.2-0.5,0.4-0.6,0.7c-0.1,0.6-0.5,0.4-0.9,0.4
		s-0.5-0.2-0.5-0.6C26.8,35.4,26.8,34.6,26.8,33.9z"/>
	<path id="XMLID_341_" fill="#FFFFFF" d="M60.5,33.9c0.1,1.1,0.6,1.9,1.6,2c0.9,0.1,2.1-0.9,2.1-1.7c0.1-0.8-0.9-2-1.6-2
		C61,32.1,60.7,32.3,60.5,33.9z"/>
	<path id="XMLID_340_" fill="#FFFFFF" d="M9.3,21.3c-0.1,0-0.1,0-0.2,0c0,0.2,0,0.3-0.1,0.5c-0.2,0.8,0.2,1.7-0.2,2.5
		c-0.3,0.8-0.4,1.8-0.8,2.6c-0.7,1.3-2,1.3-3.3,1.4c-0.9,0.1-1.8,0-2.7,0.1c-0.2,0-0.4,0-0.6,0.1c-0.1,0-0.1,0.2-0.2,0.2
		c0.1,0.1,0.2,0.2,0.3,0.2c0.4,0,0.8,0,1.2,0c0.9,0,1.7-0.1,2.6-0.1c1.7,0.1,3.2-1,3.5-2.7c0.2-0.9,0.3-1.7,0.4-2.6
		C9.4,22.8,9.3,22.1,9.3,21.3z"/>
	<path id="XMLID_339_" fill="#FFFFFF" d="M56.4,24.6c0.6,0,1.2-0.1,1.7-0.1c1.6-0.1,3.1-0.3,4.7-0.4c0.9-0.1,1.1-0.3,1-1.2
		c-0.1-0.7-0.1-1.3-0.1-2c0-1.3,0-2.7,0-4c0-0.1-0.1-0.3-0.2-0.4c-0.1,0.9-0.1,1.8-0.1,2.7c0,1.1,0,2.3,0,3.4c0,0.6-0.2,0.8-0.7,0.8
		c-1.9,0.1-3.7,0.3-5.6,0.5C56.8,23.9,56.5,24,56.4,24.6z"/>
	<path id="XMLID_338_" fill="#FFFFFF" d="M49.9,12.5c0,0,0.1,0,0.1,0.1c0.1-0.3,0.3-0.5,0.4-0.8c0.5-1.5,1-3.1,1.4-4.6
		c0.4-1.2,0.6-2.4,1.8-3.1C53.7,4,53.8,3.8,54,3.5c-0.3,0-0.6-0.1-0.7,0c-0.4,0.5-0.9,0.9-1.1,1.4c-0.4,0.9-0.6,1.8-0.9,2.7
		c-0.5,1.4-0.9,2.8-1.4,4.2C50,12.1,50,12.3,49.9,12.5z"/>
	<path id="XMLID_337_" fill="#FFFFFF" d="M62.4,36.5L62.4,36.5c-0.4,0-0.8,0-1.2,0c-0.2,0-0.4,0.2-0.5,0.4c0,0.1,0.2,0.5,0.3,0.5
		c0.9,0,1.8,0,2.7-0.1c0.1,0,0.2-0.3,0.4-0.4c-0.2-0.1-0.3-0.3-0.5-0.4C63.2,36.5,62.8,36.5,62.4,36.5z"/>
	<path id="XMLID_336_" fill="#FFFFFF" d="M16.9,28.2c-0.6-0.7-4-0.6-4.9,0.2C13.8,28.6,15.3,28.3,16.9,28.2z"/>
	<path id="XMLID_335_" fill="#FFFFFF" d="M44.5,25.7c0.4,0,0.7,0,1,0s0.6-0.1,0.9-0.1c0.8-0.1,1.5-0.2,2.3-0.3
		c0.1,0,0.2-0.2,0.4-0.3c-0.1-0.1-0.2-0.2-0.4-0.2c-0.3,0-0.7,0-1,0c-0.4,0-0.9,0.2-1.3,0.1c-0.6-0.2-1,0.1-1.5,0.2
		C44.8,25.2,44.7,25.4,44.5,25.7z"/>
	<path id="XMLID_334_" fill="#FFFFFF" d="M49.8,24.9c0,0.1,0,0.2,0.1,0.3c0.3,0,0.7,0,1,0c0.2,0,0.5-0.1,0.7-0.1
		c0.7-0.1,1.4-0.1,2.1-0.2c0.2,0,0.3-0.2,0.4-0.3c-0.2-0.1-0.3-0.3-0.5-0.3c-1.1,0.1-2.2,0.3-3.3,0.4C50.2,24.7,50,24.8,49.8,24.9z"
		/>
	<path id="XMLID_333_" fill="#FFFFFF" d="M71.3,23.3c0-0.1,0-0.2,0-0.3c-0.1,0-0.2-0.1-0.3-0.1c-1.2,0-2.5,0.1-3.7,0.2
		c-0.2,0-0.3,0.2-0.5,0.3c0,0.1,0.1,0.2,0.1,0.3C68.4,23.5,69.9,23.4,71.3,23.3z"/>
	<path id="XMLID_332_" fill="#FFFFFF" d="M79.3,22.3c-1.1,0-2,0-2.9,0c-0.4,0-0.8,0.1-0.9,0.6c0.2,0,0.4,0.1,0.5,0.1
		c1-0.1,1.9-0.1,2.9-0.2C79.1,22.8,79.2,22.5,79.3,22.3z"/>
	<path id="XMLID_331_" fill="#FFFFFF" d="M31.1,13.7c-0.1,0-0.1,0-0.2,0c-0.3,0.6-0.2,4.4,0.2,4.8C31.1,16.9,31.1,15.3,31.1,13.7z"
		/>
	<path id="XMLID_330_" fill="#FFFFFF" d="M18.5,27.5c0.1,0.6,0.6,0.7,1.1,0.7s1-0.1,1.4-0.1c0.2,0,0.3-0.3,0.4-0.4
		c-0.2-0.1-0.4-0.3-0.6-0.3C20.1,27.4,19.3,27.5,18.5,27.5z"/>
	<path id="XMLID_329_" fill="#FFFFFF" d="M59.5,4.5c0.5-0.6,0.9-1,1.4-1.6C60,2.9,59.3,3.7,59.5,4.5z"/>
	<path id="XMLID_328_" fill="#FFFFFF" d="M49.2,4.1c0-0.1-0.1-0.1-0.1-0.2c-0.7,0-0.9,0.7-1.3,1.2c-0.1,0.1,0,0.4,0,0.6
		C48.3,5.1,48.7,4.6,49.2,4.1z"/>
	<path id="XMLID_327_" fill="#FFFFFF" d="M68.9,2.4C68.4,2,68.2,2.5,68,2.6c-0.2,0.2-0.2,0.4-0.4,0.7c0.1,0,0.1,0.1,0.2,0.1
		C68.1,3.1,68.5,2.7,68.9,2.4z"/>
	<path id="XMLID_326_" fill="#FFFFFF" d="M19.8,13.4c0.1,0,0.1,0,0.2,0.1c0.4-0.4,0.3-0.8,0.3-1.3c-0.1,0-0.1,0-0.2,0
		C20,12.5,19.9,12.9,19.8,13.4z"/>
	<path id="XMLID_324_" d="M74.2,0.4c1.3-0.1,2.5-0.2,3.8-0.2c0.6,2.7,1.2,5.3,1.8,7.9c-0.1,0.3-0.3,0.7-0.4,1c0.1,0,0.1,0,0.2-0.1
		c0.2,0.3,0.4,0.5,0.5,0.8c0.3,0.8,0.4,1.6,0.7,2.4c0,0,0.1-0.1,0.1-0.2c0-0.9,0-1.8,0-2.7c0-1.9,0-3.9,0-5.8c0-0.6,0-1.3-0.1-1.9
		c-0.1-0.4-0.5-0.6-0.7-0.9c-0.1-0.2-0.3-0.3-0.4-0.4c0-0.1,0.1-0.1,0.1-0.2c1.2,0,2.5,0,3.8,0c-1.1,0.9-1,2.1-1,3.2
		c0,1.2,0,2.5,0,3.7c0,1.3,0.1,2.5,0.1,3.8c0,1-0.1,2-0.1,3c0,0.9,0,1.8,0.1,2.8c0,0.9,0,1.7,0,2.6c0,0.5,0,0.9,0.1,1.4
		c0,0.5-0.2,1-0.6,1.1c-0.7,0.1-1.3-0.2-1.5-0.7c-0.4-1.9-0.8-3.9-1.2-5.8c-0.3-1.2-0.6-2.4-0.9-3.6c-0.3,2.9,0.1,5.9-0.2,8.8
		c-0.1,0-0.1,0-0.2,0c0-0.6,0-1.3,0-1.9c0-1.1,0-2.2,0-3.4c0-0.9,0.1-1.8,0.1-2.7c0-1.9,0-3.9-0.7-5.8c-0.1-0.2-0.1-0.3-0.2-0.5
		c0,0.5-0.1,1-0.1,1.5c0,1.9,0,3.8,0,5.8c0,1.7,0.2,3.5,0,5.2c-0.1,1.3,0.4,2,1.2,2.8c-0.4,0.4-3.6,0.5-4,0.2
		c0.2-0.2,0.5-0.5,0.6-0.7c0.2-0.6,0.5-1.2,0.5-1.7c0.1-1.5,0.1-3.1,0.1-4.6c0-1.1-0.1-2.3-0.1-3.4c0-0.6,0-1.3,0-1.9c0-2,0-4,0-6
		c0-0.3,0-0.7,0-1C75.3,1.4,74.8,1,74.2,0.4z"/>
	<path id="XMLID_319_" d="M9.1,12.1c0.2,1.5,0,2.9-0.8,4.2c-0.1,0.1-0.2,0.2-0.3,0.3c-0.7,0.6-0.8,1-0.4,1.8C8,19.2,8.2,20.1,8.1,21
		C8,22.1,8,23.2,7.9,24.3c-0.1,0.6-0.5,1.2-0.8,1.7c-0.6,1-1.7,1.5-2.8,1.6c-0.9,0.1-1.8-0.1-2.7-0.1c-0.5,0-1,0-1.5,0
		c0.3-0.7,0.5-0.9,1-0.7c0.4,0.1,0.8,0,0.9-0.4c0-0.3-0.3-0.6-0.5-0.9c-0.1-0.1-0.3-0.2-0.3-0.4c0-0.7,0.1-1.3,0.1-2
		c0-0.4,0-0.7,0-1.1c0-1.3,0.1-2.6,0.1-4c0-0.3-0.1-0.7-0.1-1c0-1.4,0-2.7,0-4.1c0-1.7,0-3.5,0-5.2c0-0.3-0.2-0.5-0.4-0.7
		C0.5,6.7,0.3,6.5,0,6.2C0.3,6.1,0.5,6,0.7,6C2.1,6.1,3.6,5.8,5,6.1s2.8,1.6,2.9,3.3c0.1,0.7,0.2,1.4,0.2,2.1c0,0.5-0.2,0.9-0.3,1.4
		s-0.2,1-0.3,1.5c0,0.1,0,0.3,0,0.3c-0.5,0.2-0.6,0.8-1,1.1c-0.4,0.3-0.4,0.5-0.1,0.8c0.3,0.4,0.8,0.5,1,0.2
		c0.7-0.8,1.2-1.6,1.3-2.7C8.8,13.4,9,12.7,9.1,12.1z M4.6,12.7L4.6,12.7c-0.1-0.2-0.2-0.4-0.2-0.5c0-1,0-2,0-3
		c0-0.6,0.1-1.1,0.6-1.4c0,0,0-0.1,0-0.2C4.8,7.5,4.6,7.3,4.4,7.2c-0.6-0.2-0.9,0-1,0.6c0,0.9,0,1.8,0,2.7c0,0.7-0.1,1.4-0.1,2.1
		c0,0.9,0,1.8,0,2.7c0,0.2,0.1,0.5,0.2,0.9c0.3-0.4,0.6-0.6,0.8-0.8c0.1-0.3,0.1-0.6,0.1-0.9h0.1c0.1,0.3,0.1,0.7,0.2,1
		c0.9-0.5,1-1.4,1.2-2.2c0.1-0.5-0.1-1-0.1-1.5c-0.1-1.1-0.1-2.1-0.1-3.3c-0.4,0-0.7,0-1,0C4.6,10,4.6,11.3,4.6,12.7z M5.1,17.9
		C5,17.5,4,16.9,3.6,17c-0.1,0.1-0.2,0.2-0.2,0.3c-0.1,0.3-0.2,0.7-0.3,0.9c0.1,0.3,0.1,0.4,0.2,0.6c0,0.4,0,0.7,0,1.1
		c0.1,0.6,0.1,1.2,0.1,1.7c0,1.3,0,2.5,0,3.8c0,0.2,0.2,0.5,0.4,0.6c0.4,0.1,0.5-0.3,0.5-0.6c0-0.4-0.1-0.8-0.1-1.2
		c0-1.7,0.1-3.4,0.1-5.1C4.3,18.2,4.3,18.2,5.1,17.9z M4.7,26c0.6-0.3,0.8-0.8,0.8-1.3c0.1-1.4,0.2-2.8,0.3-4.2c0-0.6,0-1.1-0.1-1.7
		c0-0.2-0.2-0.4-0.3-0.4c-0.2,0-0.5,0-0.6,0.2c-0.2,0.3-0.2,0.6-0.3,1c0,0.2,0.1,0.3,0.1,0.5c0,1.8,0,3.5,0,5.3
		C4.6,25.5,4.6,25.7,4.7,26z"/>
	<path id="XMLID_316_" d="M11.1,5.7c1.7,0,3.3-0.1,5,0c1.1,0,1.8,0.8,2.4,1.6c0.2,0.2,0.2,0.6,0.2,0.8c0.1,0.5,0,1.2,0.3,1.6
		c0.4,0.8,0.1,1.5,0,2.2c-0.1,1-0.3,2.1-1.2,2.8c-0.2,0.2-0.4,0.5-0.6,0.7c-0.1,0.1,0,0.5,0,0.5c0.4,0.1,0.7,0.5,1.1,0.2
		c0.6-0.5,1-1.2,1.3-2c0-0.1,0.1-0.3,0.2-0.6c0.1,0.3,0.2,0.4,0.2,0.5c-0.3,0.9-0.5,1.8-1.2,2.3c-0.4,0.3-0.4,0.5-0.3,0.9
		c0.3,1,0.4,2.1,0.4,3.2c0,1.4-0.1,2.7,0,4.1c0,0.4,0.5,0.8,0.8,1.2c0.1,0.2,0.3,0.4,0.4,0.6c-0.2,0.1-0.4,0.2-0.6,0.2
		c-0.5,0.1-1,0.2-1.5,0.1c-0.4,0-0.8-0.2-1-0.6c-0.5-0.9-0.3-1.9-0.3-2.8c-0.1-1.1-0.1-2.2-0.1-3.3c0-0.4,0-0.9,0.1-1.3
		c0.1-0.6-0.1-0.9-0.7-0.8c-0.1,0-0.3,0-0.5,0c0.1-0.2,0.2-0.3,0.3-0.4c0.3-0.3,0.3-0.7-0.1-0.8c-0.3-0.1-0.7-0.1-1,0.1
		c-0.3,0.2-0.3,0.7-0.3,1c0,1.5,0,3,0,4.5c0,0.8,0,1.6-0.1,2.4c0,0.8,0.4,1.3,1,1.8c0.1,0.1,0.3,0.2,0.5,0.4
		c-0.2,0.1-0.3,0.3-0.5,0.3c-1.1,0.1-2.2,0.1-3.3,0.2c-0.1,0-0.2,0-0.3,0c-0.2,0-0.4,0-0.6,0c0.1-0.2,0.1-0.6,0.3-0.7
		c0.9-0.5,0.8-1.4,0.8-2.2c0-1.1,0.1-2.2,0.1-3.2c0-1.6-0.1-3.2-0.2-4.7c0-0.2,0.1-0.5,0.1-0.7c0-1,0-2,0-2.9c0-1,0.2-2,0.1-3
		c0-0.9-0.1-1.8-0.3-2.7c-0.1-0.4-0.5-0.6-0.8-0.9C11.1,5.8,11.1,5.7,11.1,5.7z M16.2,7.4C16,6.9,15,6.5,14.6,6.8
		c-0.2,0.1-0.2,0.5-0.3,0.7c0,0.2,0.1,0.4,0.1,0.6c-0.1,0.8-0.2,1.7-0.2,2.5c0,1.3,0.1,2.6,0.1,4c0,0.2,0.1,0.6,0.2,0.6
		c0.3,0.1,0.8,0.2,1.1,0c0.4-0.3,0.7-0.7,0.9-1.1c0.7-1.7,0.5-3.5,0.4-5.2c0-0.9-0.1-0.9-1-0.8c-0.1,0-0.1,0-0.2,0
		c-0.1,0-0.3,0-0.3-0.1s0.1-0.2,0.1-0.3C15.7,7.6,16,7.5,16.2,7.4z"/>
	<path id="XMLID_312_" d="M53,23.2c-0.6,0.5-2.9,0.8-4.4,0.6c0.2-0.4,0.5-0.7,0.7-1.1c0.1-0.2,0.2-0.5,0.2-0.7
		c-0.2-1.2-0.5-2.4-0.8-3.6c-0.1,0-0.1,0-0.2,0c-0.2,0.3-0.4,0.7-0.5,1c-0.1,0-0.1,0-0.2-0.1c0.1-0.4,0.1-0.8,0.3-1.1
		c0.4-0.9,0.1-1.6-0.1-2.5c0-0.1-0.2-0.2-0.3-0.2s-0.2,0.1-0.2,0.2c-0.2,0.4-0.3,0.9-0.4,1.4c-0.3,1-0.3,1.9-0.3,2.9
		c0,0.7-0.1,1.3,0,2c0,0.3,0.2,0.6,0.4,0.8c0.2,0.3,0.6,0.5,0.9,0.8c-0.7,0.7-4.2,0.9-4.7,0.5c0.2-0.1,0.3-0.2,0.4-0.3
		c0.5-0.4,0.9-0.8,0.8-1.5c0-0.6-0.2-1.1-0.2-1.7c0-1.3,0.1-2.6,0.2-3.9c0-0.5,0.2-1,0.3-1.5c-0.1-0.1-0.2-0.3-0.2-0.5
		c-0.1-1.4-0.1-2.7-0.2-4.1c0-1.7,0-3.5,0-5.2c0-0.8-0.1-1.5-0.9-1.9c-0.1,0-0.1-0.2-0.2-0.3c0.6-0.5,3.9-0.9,4.5-0.5
		c-0.3,0.4-0.5,0.7-0.8,0.9c-0.4,0.3-0.5,0.7-0.5,1.1c0,0.9,0.1,1.9,0.1,2.8s0.1,1.8,0,2.7c-0.1,0.5-0.2,1.1,0,1.6
		c0,0.1,0.1,0.2,0.2,0.4c0.1-0.1,0.2-0.2,0.3-0.3c0.2-0.8,0.3-1.6,0.6-2.3c0.3-0.8,0.5-1.6,0.9-2.4s0.6-1.7,0.8-2.6
		c0.2-0.6,0-1-0.6-1.3c-0.2-0.1-0.3-0.3-0.4-0.5c0.2-0.1,0.4-0.2,0.7-0.3c1.1-0.1,2.3-0.2,3.4-0.3c0.1,0,0.2,0,0.3,0
		c-0.3,0.4-0.5,0.9-0.9,1.1c-0.7,0.5-0.8,1.3-1.1,2c-0.7,1.9-1.2,3.9-1.8,5.9c-0.2,0.8-0.1,1.5,0.2,2.2c0.1,0.3,0.2,0.6,0.2,0.9
		c0.2,0.8,0.4,1.7,0.6,2.5c0.5,1.7,0.9,3.4,1.4,5c0.1,0.2,0.3,0.4,0.5,0.6C52.4,22.7,52.7,22.9,53,23.2z"/>
	<path id="XMLID_309_" d="M36.2,25.3c0.9,0.8,1.9,0.7,2.7,0c0.4-0.3,0.7-0.7,1-1c0.7-0.8,0.8-1.8,1-2.8s0.3-2,0.4-3c0.1-1,0-2,0-3
		c0-0.2,0.1-0.4,0.1-0.6c0.1,0.1,0.2,0.1,0.2,0.1c0,1.2,0,2.4-0.1,3.6c0,0.9-0.1,1.8-0.2,2.7c-0.2,1.2-0.5,2.4-1.1,3.5
		c-0.7,1.3-1.8,1.8-3.2,1.6c-0.3,0-0.7-0.3-0.9-0.5c-0.5-0.6-1.1-1.2-1.5-1.9c-0.4-0.8-0.8-1.7-1-2.6c-0.2-1-0.3-2.1-0.4-3.2
		c-0.1-0.5-0.1-1.1-0.1-1.6c0-1.1,0-2.3,0-3.5c0-0.8,0-1.6,0-2.4c0.1-1.1,0.3-2.2,0.5-3.2c0.2-0.8,0.5-1.6,0.9-2.3
		c0.4-0.6,1-1,1.5-1.4c0.7-0.5,2.3,0,2.7,0.7c0.7,1.2,1.2,2.4,1.4,3.8c0,0.4-0.2,0.8-0.1,1.1c0.7,1.7,0.3,3.4,0.3,5.1
		c0.1,1.6,0,3.1-0.1,4.7c-0.2,1.4-0.3,2.8-1,4c-0.5,1-1.3,1.7-2.5,1.9c-0.1,0-0.2,0.1-0.3,0.1C36.4,25.2,36.3,25.3,36.2,25.3z
		 M36.5,12.8L36.5,12.8c-0.1-0.2-0.2-0.5-0.2-0.7c0-1,0.2-2.1,0.2-3.1c0-0.8,0.2-1.6,0.6-2.3c0.2-0.3,0.4-0.7,0.4-1
		c0-0.2-0.2-0.5-0.5-0.6c-0.2-0.1-0.6-0.2-0.7,0.3c-0.3,1.2-0.8,2.5-0.9,3.8c-0.2,2-0.1,3.9-0.1,5.9c0,0.9-0.1,1.8,0,2.7
		c0,0.9,0.2,1.7,0.3,2.5c0.2,0.9,0.3,1.9,0.6,2.8c0.1,0.3,0.5,0.6,0.7,0.6c0.3,0,0.6-0.2,0.8-0.7c0.2-0.7,0.4-1.4,0.4-2.2
		c0-0.7,0.2-1.5,0.2-2.2c-0.1-1.9,0-3.8,0-5.8c0-0.3,0.1-0.6,0.1-0.9c0-0.9-0.1-1.8-0.2-2.7C38.1,8.5,38.1,7.8,38,7
		c0-0.1-0.2-0.3-0.3-0.3S37.5,6.8,37.4,7c-0.1,0.1-0.1,0.2-0.1,0.3c-0.4,1.6-0.8,3.2-0.6,4.9C36.6,12.3,36.6,12.6,36.5,12.8z"/>
	<path id="XMLID_306_" d="M25.7,26.4c0.4,0.8,1.1,0.5,1.6,0.5c1,0,1.6-0.7,2-1.5c0.9-1.7,1.2-3.5,1.3-5.4c0-0.3,0.1-0.6,0.3-0.9
		c0,0.5,0.2,1,0.1,1.5c-0.2,1.4-0.4,2.9-0.8,4.2c-0.3,1-0.7,2-1.9,2.5c-0.7,0.3-1.9,0.3-2.6-0.1l-0.1-0.1c-0.5-1.3-2-1.8-2.3-3.2
		c-0.2-0.8-0.4-1.6-0.5-2.4c-0.2-1-0.3-1.9-0.3-2.9c-0.1-0.8,0-1.7,0-2.6c0-0.9,0-1.9,0-2.8c0-0.8,0.2-1.7,0.3-2.5
		C22.9,9.9,23,9,23,8.1c0-0.1,0-0.2,0-0.2c0.3-0.6,0.6-1.2,0.9-1.8c0.5-0.9,1.4-1.4,2.4-1.4c0.7,0,1.5,0.3,2,1.1
		c0.6,1,1.1,2,1.2,3.2c0,0.9,0.3,1.8,0.2,2.7c-0.1,0.9,0.2,1.9,0.2,2.8c0,1.2-0.1,2.5-0.1,3.7c-0.1,1-0.1,2-0.3,3
		c-0.2,1.3-0.5,2.5-1.3,3.6C27.6,25.8,26.6,26,25.7,26.4z M26.3,8.5c-0.1,0-0.1-0.1-0.2-0.1c0.2-0.4,0.3-0.8,0.5-1.1
		c0.2-0.4,0.3-0.7-0.1-1c-0.4-0.4-1.3,0-1.4,0.7c-0.2,1.2-0.4,2.5-0.6,3.7c-0.1,1.2-0.1,2.5-0.1,3.7c0,0.5-0.2,1-0.1,1.5
		c0.1,1.4,0.2,2.8,0.3,4.1c0.1,1.2,0.3,2.5,0.5,3.7c0.1,0.4,0.4,0.9,0.9,0.9s0.7-0.5,0.8-1c0.1-0.4,0.2-0.9,0.3-1.3
		c0.1-0.8,0.3-1.6,0.4-2.4c0.1-1,0.1-2,0.1-3.1c0-0.9,0-1.8,0-2.7c0-0.9-0.1-1.8-0.2-2.7c-0.1-1.2-0.2-2.3-0.3-3.5
		c0-0.1-0.2-0.2-0.3-0.3C26.7,7.9,26.5,8.2,26.3,8.5z"/>
	<path id="XMLID_302_" d="M73.5,2.1c-0.8,0.4-1.3,1-1.5,1.8c-0.2,0.9-0.3,1.9-0.5,2.9c-0.2,0.8-0.4,1.5-0.6,2.3
		c-0.1,0.3-0.1,0.5-0.1,0.8c-0.3,1.2-0.6,2.3-0.8,3.5c-0.1,0.5,0,1,0,1.5c0,1.8,0,3.7,0.1,5.5c0,0.5,0,1-0.1,1.5
		c0,0.1-0.2,0.3-0.3,0.3c-1.2,0.1-2.5,0.2-3.7,0.2c-0.1,0-0.3-0.1-0.4-0.1c0.2-0.3,0.3-0.6,0.5-0.7c0.8-0.5,0.7-1.2,0.7-1.9
		c0-1.7,0-3.5,0-5.2c0-0.6-0.1-1.2-0.3-1.8c-0.1-0.7-0.4-1.3-0.5-1.9c-0.2-0.8-0.3-1.7-0.4-2.5c-0.2-1.3-0.4-2.6-0.7-3.8
		c-0.3-0.9-0.2-2-1.2-2.6c-0.2-0.1-0.2-0.5-0.3-0.7c0.2,0,0.5-0.1,0.7-0.1c1-0.1,2-0.2,3-0.3c0.2,0,0.4,0,0.8,0
		c-0.3,0.3-0.5,0.5-0.6,0.6c-0.9,0.7-0.5,1.6-0.4,2.4c0.1,1.1,0.4,2.1,0.6,3.1c0.1,0.5,0.3,1,0.4,1.5c0.1,0,0.1,0,0.2,0
		c0.1-0.6,0-1.4,0.3-1.9c0.4-0.8,0.2-1.6,0.5-2.4c0.2-0.6,0.3-1.3,0.3-2c0-0.1-0.2-0.3-0.3-0.5c-0.2-0.2-0.5-0.4-0.7-0.7
		c0.4-0.1,0.9-0.2,1.3-0.3c0.7-0.1,1.4-0.1,2.1-0.1c0.2,0,0.4,0.1,0.7,0.1C72.2,0.8,72.1,1,72,1.2c-0.6,0.5-1.1,1.1-1.1,2
		c0,0.8-0.4,1.7-0.6,2.5c-0.2,0.9-0.3,1.8-0.5,2.7c-0.1,0.6-0.3,1.2-0.5,1.8c-0.4,1.3-0.4,2.6-0.4,4c0,2,0,4,0.1,6
		c0,0.5,0,0.6,0.7,0.9c0.4-0.6,0.2-1.3,0.2-1.9c0-1.3,0-2.6,0-3.9c0-0.5-0.1-1,0-1.4c0.2-1.3,0.5-2.7,0.7-4c0.2-1.2,0.4-2.5,0.7-3.7
		c0.3-1.1,0.6-2.2,0.9-3.4c0.1-0.3,0.4-0.5,0.6-0.7C73,2,73.2,2,73.5,1.9C73.5,2,73.5,2.1,73.5,2.1z"/>
	<path id="XMLID_301_" d="M55.1,1.9c1.6-0.4,3.1-0.4,4.7-0.3c-0.4,0.5-0.8,0.8-1,1.2c-0.2,0.3-0.2,0.6-0.2,1c0,1.4,0,2.8,0,4.2
		c0,1.7,0.1,3.3,0.1,5c0,1.1-0.1,2.2-0.1,3.3c0,0.8,0,1.7,0,2.5s0,1.6,0.1,2.4c0,0.4,0.1,0.8,0.7,0.5c0.1,0,0.1-0.1,0.2,0
		c1,0.1,1.1-0.6,1.3-1.3c0.4-1.2,0.8-2.4,1.1-3.7c0.1-0.2,0-0.4,0.1-0.5c0.1-0.2,0.2-0.5,0.3-0.7c0.1,0,0.2,0,0.3,0.1
		c0,0.6,0,1.1,0,1.7c0,1.3-0.1,2.6-0.1,3.9c0,0.3,0.1,0.6,0.1,0.8c0.1,0.6-0.1,0.8-0.7,0.9c-1.5,0.2-2.9,0.4-4.4,0.5
		c-0.8,0.1-1.5,0-2.3,0c0-0.1-0.1-0.2-0.1-0.2c0.2-0.2,0.5-0.5,0.7-0.7c0.6-0.6,0.5-1.4,0.5-2.1c0-1.1,0-2.1,0-3.2
		c0-1.6-0.1-3.2-0.1-4.7c0-1.1,0.1-2.1,0.1-3.2c0-1.7,0-3.4-0.1-5.1c0-0.6-0.1-1.1-0.7-1.4C55.3,2.3,55.2,2.1,55.1,1.9z"/>
	<path id="XMLID_296_" d="M46.5,34.8c-0.4,0.1-0.8,0.1-1.1,0.2c-0.5,0-0.8,0.4-0.7,0.9c0,0.5,0.3,0.6,0.8,0.6s1-0.1,1.5,0
		c0.2,0,0.3,0.3,0.5,0.4c-0.2,0.2-0.3,0.4-0.5,0.5c-0.1,0.1-0.3-0.1-0.5-0.1c-0.6,0-1.1,0-1.7,0.1c-0.7,0.1-1-0.1-1-0.9
		c0-1,0-1.9,0-2.9c0-0.2-0.1-0.5-0.3-0.7c-0.3-0.4-0.2-0.6,0.2-0.7c0.2,0,0.5-0.1,0.7,0c0.8,0.2,1.7-0.3,2.5,0.1
		c0.2,0.1,0.4,0.4,0.5,0.6c0,0.1-0.2,0.4-0.4,0.4s-0.4-0.1-0.5-0.2c-0.2-0.1-0.4-0.3-0.6-0.3c-0.2-0.1-0.5,0-0.8,0
		c-0.8,0.1-0.5,0.7-0.5,1.1c-0.1,0.4,0.3,0.3,0.6,0.4C45.6,34.4,46.1,34.1,46.5,34.8z"/>
	<path id="XMLID_293_" d="M34.6,32.7c-0.7,0.8,0,1.5,0.2,2.2c0.1,0.3,0.2,0.7,0.4,1s0.4,0.6,0.6,0.8c0.1,0.1,0.2,0.3,0.2,0.4
		c-0.1,0.1-0.2,0.3-0.4,0.3c-0.5,0-0.9-0.1-1.4-0.1c0.1-0.5,0.2-0.8,0.2-1.1c0-0.2-0.2-0.5-0.4-0.5c-0.9-0.3-1.6,0.2-1.7,1.1
		c-0.1,0.6-0.5,0.9-1.1,0.7c-0.3-0.1-0.4-0.4-0.1-0.6c0.8-0.6,0.9-1.4,1.2-2.3c0.2-0.5,0.3-1.1,0.6-1.6
		C33.2,32.3,33.9,32.2,34.6,32.7z M34,34.9c-0.1-0.4-0.3-0.7-0.4-1.1c0,0-0.3,0-0.3,0.1c-0.1,0.3-0.2,0.7-0.2,1
		C33.4,34.9,33.6,34.9,34,34.9z"/>
	<path id="XMLID_292_" d="M23.1,34c-0.3-0.2-0.6-0.4-0.9-0.6c-0.2-0.1-0.5-0.2-0.6-0.2c-0.3,0.3-0.5,0.6-0.7,0.9
		c0,0,0.2,0.2,0.4,0.3c0.6,0.2,1.3,0.3,1.8,0.7c0.3,0.2,0.5,0.8,0.5,1.1c0,0.5-0.2,1-0.8,1.3c-0.9,0.4-1.6,0.1-2.4-0.1
		c-0.2-0.1-0.4-0.5-0.4-0.8c0-0.2,0.1-0.5,0.3-0.7c0.2-0.3,0.5,0,0.5,0.2c0.1,0.5,0.5,0.7,0.9,0.8c0.5,0.2,1,0,1.1-0.5
		c0.1-0.4-0.1-0.7-0.6-0.8s-0.9-0.3-1.3-0.5c-0.5-0.2-0.7-0.5-0.8-1c-0.1-0.6,0.2-0.9,0.6-1.2c0.7-0.5,1.8-0.4,2.3,0.2
		c0.2,0.2,0.2,0.5,0.3,0.8C23.2,33.9,23.1,33.9,23.1,34z"/>
	<path id="XMLID_291_" d="M55.8,36.5c0.8,0,1.3-0.3,1.6-0.9c0.1-0.2,0.3-0.3,0.5-0.5c0,0,0.3,0.2,0.3,0.3c-0.2,0.9-1.1,1.8-2.1,2
		c-0.7,0.1-1.2-0.4-1.7-0.7c-1.1-0.7-1.2-2.3-0.6-3.4c0.8-1.4,2-1.6,3.4-0.9c0.1,0.1,0.3,0.1,0.4,0.1c0.6,0.1,0.9,0.4,0.6,1
		c-0.2,0.4-0.5,0.5-0.7,0.1c-0.3-0.6-0.9-0.8-1.4-1c-0.3-0.1-0.7,0.1-1,0.3s-0.4,0.5-0.6,0.8c-0.5,1.1-0.1,2.2,0.8,2.6
		C55.5,36.5,55.7,36.5,55.8,36.5z"/>
	<path id="XMLID_290_" d="M81.5,22.3c0.5,0,0.8-0.1,1.1-0.1c0.5,0,0.7-0.2,0.7-0.7c0-1.3,0-2.6,0-3.9c0-1.4,0.1-2.8,0.1-4.1
		c0-0.3-0.2-0.6-0.2-1c0.1-1.8,0.2-3.6,0.2-5.4c0-0.6-0.2-1.2-0.1-1.8C83.5,4.2,83,3,83.6,1.9c0.2-0.4,0.6-0.7,1-0.6
		c-0.3,0.5-0.6,1.1-0.9,1.6c0,0.1-0.1,0.2-0.1,0.3c0.3,1.3-0.1,2.6,0,3.9s0.1,2.6,0.1,3.8c0,1-0.1,2-0.1,3s0.1,2,0.1,3
		c0,0.3-0.2,0.5-0.2,0.8c0,1,0,1.9,0.1,2.9c0,0.5,0.1,1.1,0.1,1.6c0,0.1,0,0.2-0.1,0.3C83.3,22.9,82,22.8,81.5,22.3z"/>
	<path id="XMLID_289_" d="M38.3,36.9c0.5-0.5,0.6-1,0.5-1.6s0-1.1,0-1.7c0-0.2-0.3-0.4-0.4-0.6c-0.1,0.2-0.3,0.3-0.4,0.5
		c-0.1,0.1-0.3,0.3-0.4,0.4c-0.1-0.2-0.3-0.3-0.3-0.5c-0.1-0.9,0.2-1.3,1.1-1.2c0.6,0.1,1.1,0,1.7,0.1c0.3,0,0.6,0,0.9,0.1
		c0.1,0,0.3,0.2,0.3,0.4s-0.1,0.4-0.2,0.5c-0.1,0.1-0.3,0-0.5-0.1c-0.5-0.3-0.8-0.2-0.8,0.3c0,0.9,0,1.8,0.1,2.7
		c0.1,0.5-0.1,0.8-0.4,1C39,37.4,38.6,37.5,38.3,36.9z"/>
	<path id="XMLID_288_" d="M26.8,33.9c0,0.8,0,1.5,0,2.3c0,0.4,0.1,0.6,0.5,0.6c0.3,0,0.8,0.1,0.9-0.4c0.1-0.3,0.4-0.4,0.6-0.7
		c0.1,0.3,0.3,0.5,0.3,0.8c0,0.9-0.4,1.3-1.3,1.2c-0.6,0-1.1-0.1-1.7-0.1c-0.5,0-0.6-0.3-0.4-0.7S26,36,26,35.5s-0.1-1-0.1-1.5
		c0-0.2,0-0.4-0.1-0.6c0-0.2-0.1-0.4-0.1-0.7c0-0.1,0.4-0.2,0.5-0.1c0.2,0.1,0.5,0.3,0.5,0.5C26.9,33.2,26.8,33.6,26.8,33.9
		L26.8,33.9z"/>
	<path id="XMLID_285_" d="M60.5,33.9c0.2-1.5,0.6-1.7,2.1-1.7c0.7,0,1.7,1.2,1.6,2c0,0.8-1.2,1.8-2.1,1.7
		C61.1,35.8,60.6,35,60.5,33.9z M62.4,35.1c0.6,0,0.7-0.5,0.9-1.1c0.2-0.5,0-0.9-0.4-1.1c-0.2-0.2-0.6-0.1-0.9-0.1
		c-0.5,0.1-0.8,0.7-0.7,1.3C61.4,35,61.6,35.1,62.4,35.1z"/>
	<path id="XMLID_284_" d="M9.3,21.3c0,0.7,0.1,1.5,0,2.2c-0.1,0.9-0.3,1.7-0.4,2.6c-0.3,1.7-1.8,2.8-3.5,2.7c-0.9-0.1-1.7,0-2.6,0.1
		c-0.4,0-0.8,0-1.2,0c-0.1,0-0.2-0.1-0.3-0.2c0.1-0.1,0.1-0.2,0.2-0.2c0.2-0.1,0.4-0.1,0.6-0.1c0.9,0,1.8,0,2.7-0.1
		c1.2-0.1,2.6-0.1,3.3-1.4c0.4-0.8,0.5-1.8,0.9-2.6c0.4-0.8,0-1.7,0.2-2.5C9.2,21.6,9.2,21.5,9.3,21.3C9.2,21.3,9.3,21.3,9.3,21.3z"
		/>
	<path id="XMLID_283_" d="M56.4,24.6c0.1-0.6,0.4-0.7,0.8-0.7c1.9-0.1,3.7-0.3,5.6-0.5c0.5,0,0.8-0.2,0.7-0.8c-0.1-1.1,0-2.3,0-3.4
		c0-0.9,0-1.8,0.1-2.7c0.1,0.1,0.2,0.3,0.2,0.4c0,1.3,0,2.7,0,4c0,0.7,0,1.3,0.1,2c0.1,0.9-0.2,1.1-1,1.2c-1.6,0.1-3.1,0.3-4.7,0.4
		C57.5,24.5,57,24.5,56.4,24.6z"/>
	<path id="XMLID_282_" d="M49.9,12.5c0.1-0.2,0.1-0.4,0.2-0.6c0.4-1.4,0.9-2.8,1.4-4.2C51.8,6.8,52,5.9,52.4,5
		c0.2-0.5,0.7-1,1.1-1.4c0.1-0.1,0.4,0,0.7,0c-0.2,0.3-0.3,0.5-0.4,0.6c-1.2,0.7-1.4,1.9-1.8,3.1c-0.5,1.5-0.9,3.1-1.4,4.6
		c-0.1,0.3-0.3,0.5-0.4,0.8C50,12.5,50,12.5,49.9,12.5z"/>
	<path id="XMLID_281_" d="M62.4,36.5c0.4,0,0.8,0,1.2,0.1c0.2,0,0.3,0.2,0.5,0.4c-0.1,0.1-0.2,0.4-0.4,0.4c-0.9,0.1-1.8,0.1-2.7,0.1
		c-0.1,0-0.4-0.4-0.3-0.5c0.1-0.2,0.3-0.4,0.5-0.4C61.6,36.5,62,36.6,62.4,36.5L62.4,36.5z"/>
	<path id="XMLID_280_" d="M16.9,28.2c-1.6,0.1-3.1,0.4-4.9,0.2C12.9,27.6,16.3,27.5,16.9,28.2z"/>
	<path id="XMLID_279_" d="M44.5,25.7c0.2-0.3,0.2-0.5,0.4-0.5c0.5-0.2,0.9-0.4,1.5-0.2c0.4,0.1,0.8-0.1,1.3-0.1c0.3,0,0.7,0,1,0
		c0.1,0,0.2,0.1,0.4,0.2c-0.1,0.1-0.2,0.3-0.4,0.3c-0.8,0.1-1.5,0.2-2.3,0.3c-0.3,0-0.6,0.1-0.9,0.1C45.2,25.7,45,25.7,44.5,25.7z"
		/>
	<path id="XMLID_278_" d="M49.8,24.9c0.2-0.1,0.3-0.2,0.5-0.2c1.1-0.2,2.2-0.3,3.3-0.4c0.2,0,0.3,0.2,0.5,0.3
		c-0.1,0.1-0.3,0.3-0.4,0.3C53,25,52.3,25,51.6,25.1c-0.2,0-0.5,0.1-0.7,0.1c-0.3,0-0.7,0-1,0C49.9,25,49.8,25,49.8,24.9z"/>
	<path id="XMLID_277_" d="M71.3,23.3c-1.5,0.1-2.9,0.2-4.4,0.4c0-0.1-0.1-0.2-0.1-0.3c0.2-0.1,0.3-0.3,0.5-0.3
		c1.2-0.1,2.5-0.1,3.7-0.2c0.1,0,0.2,0.1,0.3,0.1C71.3,23.1,71.3,23.2,71.3,23.3z"/>
	<path id="XMLID_276_" d="M79.3,22.3c-0.2,0.2-0.2,0.5-0.3,0.5c-1,0.1-1.9,0.2-2.9,0.2c-0.2,0-0.3-0.1-0.5-0.1
		c0.1-0.5,0.5-0.6,0.9-0.6C77.4,22.3,78.2,22.3,79.3,22.3z"/>
	<path id="XMLID_275_" d="M31.1,13.7c0,1.6,0,3.2,0,4.8c-0.4-0.4-0.5-4.2-0.2-4.8C30.9,13.7,31,13.7,31.1,13.7z"/>
	<path id="XMLID_274_" d="M18.5,27.5c0.8-0.1,1.6-0.1,2.4-0.2c0.2,0,0.4,0.2,0.6,0.3c-0.1,0.1-0.3,0.4-0.4,0.4
		c-0.5,0.1-0.9,0.1-1.4,0.1C19.1,28.2,18.6,28.1,18.5,27.5z"/>
	<path id="XMLID_273_" d="M59.5,4.5c-0.2-0.8,0.4-1.6,1.4-1.6C60.4,3.4,60,3.9,59.5,4.5z"/>
	<path id="XMLID_272_" d="M49.2,4.1c-0.5,0.5-0.9,1-1.5,1.6c0-0.2,0-0.5,0-0.6C48,4.6,48.2,3.9,49,3.9C49.1,4,49.1,4,49.2,4.1z"/>
	<path id="XMLID_271_" d="M68.9,2.4c-0.4,0.4-0.7,0.7-1.1,1c-0.1,0-0.1-0.1-0.2-0.1c0.1-0.2,0.2-0.5,0.4-0.7
		C68.2,2.4,68.3,2,68.9,2.4z"/>
	<path id="XMLID_270_" d="M19.8,13.4c0.1-0.4,0.2-0.8,0.3-1.3c0.1,0,0.1,0,0.2,0c0,0.4,0.1,0.9-0.3,1.3
		C19.9,13.4,19.9,13.4,19.8,13.4z"/>
	<path id="XMLID_269_" fill="#FFFFFF" d="M4.6,12.7c0-1.4,0-2.7,0-4.1c0.4,0,0.6,0,1,0c0,1.1,0.1,2.2,0.1,3.3c0,0.5,0.2,1.1,0.1,1.5
		c-0.2,0.7-0.3,1.6-1.2,2.2c-0.1-0.4-0.1-0.7-0.2-1H4.3c0,0.3,0,0.7-0.1,0.9c-0.1,0.3-0.4,0.5-0.8,0.8c-0.1-0.4-0.2-0.6-0.2-0.9
		c0-0.9,0-1.8,0-2.7c0-0.7,0.1-1.4,0.1-2.1c0-0.9,0-1.8,0-2.7c0-0.6,0.3-0.8,0.9-0.5c0.2,0.1,0.4,0.3,0.6,0.4c0,0.1,0,0.1,0,0.2
		C4.3,8.3,4.2,8.8,4.2,9.4c0,1,0,2,0,3c0,0.2,0.1,0.4,0.1,0.5C4.5,12.7,4.5,12.7,4.6,12.7z"/>
	<path id="XMLID_268_" fill="#FFFFFF" d="M5.1,17.9c-0.8,0.2-0.8,0.2-0.8,1.2c0,1.7,0,3.4-0.1,5.1c0,0.4,0,0.8,0.1,1.2
		c0,0.4-0.1,0.7-0.5,0.6c-0.2,0-0.4-0.4-0.4-0.6c0-1.3,0-2.5,0-3.8c0-0.5,0-1.1-0.1-1.6c0-0.4,0-0.7,0-1.1c0-0.2-0.1-0.3-0.2-0.6
		c0.1-0.2,0.1-0.6,0.3-0.9c0-0.1,0.1-0.3,0.2-0.3C4,16.9,5,17.5,5.1,17.9z"/>
	<path id="XMLID_267_" fill="#FFFFFF" d="M4.7,26c0-0.3-0.1-0.5-0.1-0.7c0-1.8,0-3.5,0-5.3c0-0.2-0.1-0.4-0.1-0.5
		c0.1-0.3,0.1-0.7,0.3-1c0.1-0.1,0.4-0.2,0.6-0.2c0.1,0,0.3,0.3,0.3,0.4c0.1,0.6,0.1,1.1,0.1,1.7c-0.1,1.4-0.1,2.8-0.3,4.2
		C5.5,25.1,5.3,25.6,4.7,26z"/>
	<path id="XMLID_266_" fill="#FFFFFF" d="M16.2,7.4c-0.2,0.1-0.5,0.2-0.7,0.3c-0.1,0-0.2,0.2-0.1,0.3c0,0.1,0.2,0.1,0.3,0.2
		c0.1,0,0.1,0,0.2,0c0.9-0.1,1-0.1,1,0.8c0.1,1.8,0.4,3.5-0.4,5.2c-0.2,0.4-0.5,0.9-0.9,1.1c-0.2,0.2-0.7,0.1-1.1,0
		c-0.1,0-0.2-0.4-0.2-0.6c-0.1-1.3-0.1-2.6-0.1-4c0-0.8,0.1-1.7,0.2-2.5c0-0.2-0.1-0.4-0.1-0.6c0-0.2,0.1-0.6,0.3-0.7
		C15,6.6,16,7,16.2,7.4z"/>
	<path id="XMLID_264_" fill="#FFFFFF" d="M36.5,12.8c0-0.2,0.1-0.5,0.1-0.7c-0.2-1.7,0.2-3.3,0.6-4.9c0-0.1,0.1-0.2,0.1-0.3
		c0.1-0.1,0.2-0.3,0.3-0.3s0.3,0.2,0.3,0.3c0.1,0.7,0.2,1.4,0.2,2.2c0.1,0.9,0.1,1.8,0.2,2.7c0,0.3,0,0.6-0.1,0.9
		c0,1.9-0.1,3.8,0,5.8c0,0.8-0.2,1.5-0.2,2.2c0,0.8-0.2,1.5-0.4,2.2c-0.1,0.5-0.5,0.7-0.8,0.7c-0.2,0-0.6-0.4-0.7-0.6
		c-0.3-0.9-0.4-1.8-0.6-2.8c-0.1-0.8-0.3-1.7-0.3-2.5c0-0.9,0-1.8,0-2.7c0-2-0.1-3.9,0.1-5.9c0.1-1.3,0.6-2.5,0.9-3.8
		c0.1-0.4,0.5-0.4,0.7-0.3c0.3,0.2,0.5,0.5,0.5,0.7c0,0.3-0.2,0.7-0.4,1c-0.4,0.7-0.6,1.5-0.6,2.3c0,1-0.1,2.1-0.2,3.1
		c0,0.2,0.1,0.5,0.1,0.7C36.4,12.8,36.5,12.8,36.5,12.8z"/>
	<path id="XMLID_260_" fill="#FFFFFF" d="M26.3,8.5c0.2-0.3,0.3-0.5,0.6-0.8C27,7.8,27.2,7.9,27.2,8c0.1,1.2,0.2,2.3,0.3,3.5
		c0.1,0.9,0.1,1.8,0.2,2.7c0,0.9,0,1.8,0,2.7c0,1,0,2-0.1,3.1c-0.1,0.8-0.3,1.6-0.4,2.4c-0.1,0.4-0.1,0.9-0.3,1.3
		c-0.1,0.4-0.3,0.9-0.8,1c-0.6,0-0.8-0.4-0.9-0.9c-0.2-1.2-0.4-2.5-0.5-3.7c-0.1-1.4-0.3-2.7-0.3-4.1c0-0.5,0.1-1,0.1-1.5
		c0-1.2,0-2.5,0.1-3.7c0.1-1.3,0.3-2.5,0.6-3.7c0.1-0.7,0.9-1.1,1.4-0.7c0.4,0.3,0.2,0.7,0.1,1C26.5,7.8,26.4,8.2,26.3,8.5
		C26.2,8.4,26.3,8.4,26.3,8.5z M25.8,12.8c0.1-1.4,0.3-2.7,0.4-4.1C25.8,9.1,25.5,11.2,25.8,12.8z M25.6,18.3c0.1,0,0.2,0,0.3,0
		c-0.3-1.5,0.2-3.1-0.1-4.6c-0.1,0-0.1,0-0.2,0C25.6,15.3,25.6,16.8,25.6,18.3z"/>
	<path id="XMLID_256_" fill="#FFFFFF" d="M34,34.9c-0.4,0-0.7,0-0.9,0c0.1-0.3,0.1-0.7,0.2-1c0-0.1,0.3-0.1,0.3-0.1
		C33.8,34.1,33.9,34.4,34,34.9z"/>
	<path id="XMLID_255_" fill="#FFFFFF" d="M62.4,35.1c-0.8,0-1-0.2-1.1-0.9c-0.1-0.6,0.2-1.2,0.7-1.3c0.3-0.1,0.7-0.1,0.9,0.1
		c0.3,0.2,0.6,0.6,0.4,1.1C63,34.6,63,35.2,62.4,35.1z"/>
	<path id="XMLID_254_" d="M25.8,12.8c-0.3-1.6,0-3.7,0.4-4.1C26.1,10.1,25.9,11.4,25.8,12.8z"/>
	<path id="XMLID_253_" d="M25.6,18.3c0-1.5,0-3.1,0-4.6c0.1,0,0.1,0,0.2,0c0.4,1.5-0.2,3.1,0.1,4.6C25.8,18.3,25.7,18.3,25.6,18.3z"
		/>
</g>
</svg>
